<svg width="295" height="300" viewBox="0 0 295 300" fill="none" xmlns="http://www.w3.org/2000/svg">
<path d="M150.51 122.729V180.82H231.512C227.955 199.502 217.281 215.321 201.273 225.957L250.12 263.731C278.581 237.55 295 199.094 295 153.412C295 142.776 294.043 132.548 292.264 122.73L150.51 122.729Z" fill="#4285F4"/>
<path d="M66.1584 178.553L55.1414 186.958L16.1445 217.23C40.9105 266.185 91.6703 300.004 150.506 300.004C191.143 300.004 225.213 286.64 250.117 263.731L201.269 225.958C187.86 234.958 170.756 240.413 150.506 240.413C111.373 240.413 78.125 214.095 66.22 178.639L66.1584 178.553Z" fill="#34A853"/>
<path d="M16.1446 82.7734C5.88303 102.955 0 125.728 0 150.001C0 174.273 5.88303 197.047 16.1446 217.228C16.1446 217.363 66.2249 178.5 66.2249 178.5C63.2147 169.5 61.4354 159.955 61.4354 149.999C61.4354 140.043 63.2147 130.498 66.2249 121.498L16.1446 82.7734Z" fill="#FBBC05"/>
<path d="M150.509 59.7279C172.676 59.7279 192.379 67.3642 208.114 82.0918L251.215 39.1373C225.081 14.8647 191.148 0 150.509 0C91.6734 0 40.9105 33.6821 16.1445 82.7738L66.2233 121.502C78.1267 86.0462 111.377 59.7279 150.509 59.7279Z" fill="#EA4335"/>
</svg>
